<svg xmlns="http://www.w3.org/2000/svg" width="60" height="60" viewBox="0 0 60 60"><rect width="100%" height="100%" fill="#DDDDDD"/><path fill="#999999" d="m16.515 26.025-2.36 2.88-.28.35q.23-.12.5-.18.27-.07.58-.07.45 0 .87.15.43.15.75.45.33.3.53.75.19.44.19 1.04 0 .55-.2 1.04-.2.48-.57.85-.37.36-.89.57-.52.21-1.15.21-.63 0-1.14-.21-.51-.2-.86-.56-.36-.37-.55-.88-.19-.52-.19-1.15 0-.56.23-1.15.23-.59.7-1.23l1.9-2.54q.1-.14.29-.23.19-.09.44-.09h1.21Zm-2.05 6.93q.32 0 .59-.11.28-.11.47-.31.2-.2.31-.47.11-.26.11-.58 0-.34-.11-.61-.1-.27-.3-.46-.19-.19-.46-.29-.27-.1-.59-.1-.33 0-.59.11-.26.11-.45.31-.19.19-.29.46-.11.27-.11.57 0 .33.09.61.09.27.27.46.18.19.45.3.26.11.61.11Zm9.3-2.96q0 1.04-.22 1.81t-.62 1.27q-.39.5-.93.74-.53.25-1.15.25-.63 0-1.16-.25-.53-.24-.92-.74t-.61-1.27q-.22-.77-.22-1.81t.22-1.81q.22-.76.61-1.26t.92-.75q.53-.24 1.16-.24.62 0 1.15.24.54.25.93.75.4.5.62 1.26.22.77.22 1.81Zm-1.4 0q0-.86-.13-1.43-.12-.56-.34-.9-.21-.33-.48-.47-.28-.13-.57-.13-.3 0-.57.13-.27.14-.48.47-.21.34-.33.9-.13.57-.13 1.43 0 .87.13 1.43.12.57.33.91.21.33.48.47.27.13.57.13.29 0 .57-.13.27-.14.48-.47.22-.34.34-.91.13-.56.13-1.43Zm10.14 2.16-.72.71-1.87-1.87-1.88 1.88-.72-.71 1.88-1.89-1.79-1.79.71-.71 1.8 1.79 1.78-1.78.72.71-1.78 1.79 1.87 1.87Zm8.49-6.13-2.36 2.88-.27.35q.23-.12.5-.18.26-.07.57-.07.45 0 .88.15t.75.45q.32.3.52.75.2.44.2 1.04 0 .55-.2 1.04-.21.48-.58.85-.36.36-.88.57-.52.21-1.15.21-.64 0-1.14-.21-.51-.2-.87-.56-.36-.37-.55-.88-.18-.52-.18-1.15 0-.56.22-1.15.23-.59.71-1.23l1.9-2.54q.1-.14.29-.23.19-.09.43-.09h1.21Zm-2.05 6.93q.33 0 .6-.11.27-.11.47-.31.19-.2.3-.47.11-.26.11-.58 0-.34-.1-.61-.11-.27-.3-.46t-.46-.29q-.27-.1-.6-.1-.32 0-.58.11-.27.11-.46.31-.18.19-.29.46-.1.27-.1.57 0 .33.09.61.09.27.27.46.18.19.44.3.27.11.61.11Zm9.31-2.96q0 1.04-.22 1.81-.23.77-.62 1.27t-.93.74q-.54.25-1.16.25-.62 0-1.15-.25-.53-.24-.92-.74t-.61-1.27q-.22-.77-.22-1.81t.22-1.81q.22-.76.61-1.26t.92-.75q.53-.24 1.15-.24.62 0 1.16.24.54.25.93.75t.62 1.26q.22.77.22 1.81Zm-1.4 0q0-.86-.13-1.43-.13-.56-.34-.9-.21-.33-.49-.47-.27-.13-.57-.13-.29 0-.56.13-.27.14-.48.47-.21.34-.34.9-.12.57-.12 1.43 0 .87.12 1.43.13.57.34.91.21.33.48.47.27.13.56.13.3 0 .57-.13.28-.14.49-.47.21-.34.34-.91.13-.56.13-1.43Z"/></svg>